<!DOCTYPE svg PUBLIC "-//W3C//DTD SVG 1.1//EN" "http://www.w3.org/Graphics/SVG/1.1/DTD/svg11.dtd">
<!-- Uploaded to: SVG Repo, www.svgrepo.com, Transformed by: SVG Repo Mixer Tools -->
<svg fill="#0274ed" height="256px" width="256px" version="1.1" id="Layer_1" xmlns="http://www.w3.org/2000/svg" xmlns:xlink="http://www.w3.org/1999/xlink" viewBox="-275 -275 1050.00 1050.00" enable-background="new 0 0 500 500" xml:space="preserve" stroke="#0274ed" stroke-width="7" transform="matrix(1, 0, 0, -1, 0, 0)">
<g id="SVGRepo_bgCarrier" stroke-width="0" transform="translate(250,250), scale(0)">
<rect x="-275" y="-275" width="1050.00" height="1050.00" rx="525" fill="#7ed0ec" strokewidth="0"/>
</g>
<g id="SVGRepo_tracerCarrier" stroke-linecap="round" stroke-linejoin="round" stroke="#b2b3b2" stroke-width="1"/>
<g id="SVGRepo_iconCarrier"> <path d="M306,192h-48v-48c0-4.4-3.6-8-8-8s-8,3.6-8,8v48h-48c-4.4,0-8,3.6-8,8s3.6,8,8,8h48v48c0,4.4,3.6,8,8,8s8-3.6,8-8v-48h48 c4.4,0,8-3.6,8-8S310.4,192,306,192z"/> </g>
</svg>